<svg xmlns="http://www.w3.org/2000/svg" xmlns:xlink="http://www.w3.org/1999/xlink" viewBox="0 0 1116.13 976.13"><defs><style>.cls-1{fill:url(#radial-gradient);}.cls-2{fill:url(#radial-gradient-2);}.cls-10,.cls-11,.cls-3,.cls-4,.cls-5,.cls-6,.cls-7,.cls-8,.cls-9{stroke-miterlimit:10;stroke-width:7px;}.cls-3{fill:url(#radial-gradient-3);stroke:url(#radial-gradient-4);}.cls-4{fill:url(#radial-gradient-5);stroke:url(#radial-gradient-6);}.cls-5{fill:url(#radial-gradient-7);stroke:url(#radial-gradient-8);}.cls-6{fill:url(#radial-gradient-9);stroke:url(#radial-gradient-10);}.cls-7{fill:url(#radial-gradient-11);stroke:url(#radial-gradient-12);}.cls-8{fill:url(#radial-gradient-13);stroke:url(#radial-gradient-14);}.cls-9{fill:url(#radial-gradient-15);stroke:url(#radial-gradient-16);}.cls-10{fill:url(#radial-gradient-17);stroke:url(#radial-gradient-18);}.cls-11{fill:url(#radial-gradient-19);stroke:url(#radial-gradient-20);}</style><radialGradient id="radial-gradient" cx="597.23" cy="184.6" r="83" gradientUnits="userSpaceOnUse"><stop offset="0" stop-color="#3fa9f5"/><stop offset="1" stop-color="#003fff"/></radialGradient><radialGradient id="radial-gradient-2" cx="602.46" cy="342.8" r="463.11" gradientTransform="matrix(-1, 0, 0, 1, 1160.52, 0)" xlink:href="#radial-gradient"/><radialGradient id="radial-gradient-3" cx="102.24" cy="860.46" r="56.57" xlink:href="#radial-gradient"/><radialGradient id="radial-gradient-4" cx="102.24" cy="860.46" r="60.04" xlink:href="#radial-gradient"/><radialGradient id="radial-gradient-5" cx="185.63" cy="853.58" r="52.23" xlink:href="#radial-gradient"/><radialGradient id="radial-gradient-6" cx="185.63" cy="853.58" r="55.37" xlink:href="#radial-gradient"/><radialGradient id="radial-gradient-7" cx="251.23" cy="897.88" r="61.26" xlink:href="#radial-gradient"/><radialGradient id="radial-gradient-8" cx="251.23" cy="897.88" r="64.65" xlink:href="#radial-gradient"/><radialGradient id="radial-gradient-9" cx="352.09" cy="876.8" r="44.73" xlink:href="#radial-gradient"/><radialGradient id="radial-gradient-10" cx="352.09" cy="876.8" r="48.23" xlink:href="#radial-gradient"/><radialGradient id="radial-gradient-11" cx="437.84" cy="853.58" r="52.23" xlink:href="#radial-gradient"/><radialGradient id="radial-gradient-12" cx="437.84" cy="853.58" r="55.37" xlink:href="#radial-gradient"/><radialGradient id="radial-gradient-13" cx="511.28" cy="849.76" r="62.92" xlink:href="#radial-gradient"/><radialGradient id="radial-gradient-14" cx="511.28" cy="849.76" r="66.37" xlink:href="#radial-gradient"/><radialGradient id="radial-gradient-15" cx="707.39" cy="860.84" r="63.41" xlink:href="#radial-gradient"/><radialGradient id="radial-gradient-16" cx="707.39" cy="860.84" r="66.91" xlink:href="#radial-gradient"/><radialGradient id="radial-gradient-17" cx="846.05" cy="861.98" r="62.15" xlink:href="#radial-gradient"/><radialGradient id="radial-gradient-18" cx="846.05" cy="861.98" r="65.64" xlink:href="#radial-gradient"/><radialGradient id="radial-gradient-19" cx="990.58" cy="860.3" r="67.92" xlink:href="#radial-gradient"/><radialGradient id="radial-gradient-20" cx="990.58" cy="860.3" r="71.42" xlink:href="#radial-gradient"/></defs><title>Asset 2</title><g id="Layer_2" data-name="Layer 2"><g id="Layer_1-2" data-name="Layer 1"><circle class="cls-1" cx="597.23" cy="184.6" r="83"/><path class="cls-2" d="M87.23,1.6c-92.46,27.14-149.56,385,30.19,568,125.09,127.35,314,118.21,401,114,186.42-9,315.88-95.07,394-147,61.87-41.13,222.94-158.62,201.81-203-28.93-60.76-337.77,145-626.81,33C224.53,264.69,174.43-24,87.23,1.6Z"/><path class="cls-3" d="M136,915.35c-1.34,0-3.67-.17-7-.51s-5.74-.42-7.31-.42a147.08,147.08,0,0,0-44.51,6.81q-8.9,2.85-12.68,2.85a9.22,9.22,0,0,1-8-4,13.5,13.5,0,0,1-2.85-7.72,47.84,47.84,0,0,1,1.51-7.73A143.06,143.06,0,0,0,58.36,887l7.55-69.62a118.11,118.11,0,0,1,1.64-12.85,9.82,9.82,0,0,1,3.66-5.29q2.92-2.36,8-2.35a9.66,9.66,0,0,1,7.06,3,9.17,9.17,0,0,1,3,6.55,74.82,74.82,0,0,1-1.51,11.42Q85.56,829.6,81.62,863t-4,35.35c0,1.63.28,2.44.84,2.44q3.19,0,17.55-2.27a125.24,125.24,0,0,1,13.61-1.43q19.65-.92,27.55-2.85a18.51,18.51,0,0,1,3.69-.59,9.53,9.53,0,0,1,7.23,2.73,9.13,9.13,0,0,1,2.6,6.51,10.79,10.79,0,0,1-4.49,9A16.53,16.53,0,0,1,136,915.35Z"/><path class="cls-4" d="M168.12,863.61v.09q2.69-15.29,2.69-17.47a18.72,18.72,0,0,1,2.73-10.41,8.59,8.59,0,0,1,7.6-4.2c3.81,0,6.77.89,8.9,2.68a7.83,7.83,0,0,1,3.19,6.05q0,3.36-3.1,13.86l-.51,1.85q-4.62,16.2-5.54,26.45t-.92,16.55a71.4,71.4,0,0,0,1.76,13.69,15.4,15.4,0,0,1,.25,2.51q0,1.93-3.65,5.21a11.56,11.56,0,0,1-7.85,3.28q-11.08,0-11.09-16.8,0-14.28,4-34.77Q167.45,867.65,168.12,863.61Zm40.57-69q0,6-5.38,10.46T194,809.53a11.9,11.9,0,0,1-8.94-4.2q-3.92-4.2-3.91-8.4a13,13,0,0,1,3.86-9.78q3.87-3.74,11.09-3.74a12.67,12.67,0,0,1,9.11,3.32A10.47,10.47,0,0,1,208.69,794.58Z"/><path class="cls-5" d="M266.13,897.29q-22.24,22.77-39.22,22.76a16.85,16.85,0,0,1-14.23-7q-5.25-7-5.25-17.6,0-22.66,20.91-47.49t43.17-24.82q10.41,0,12.76,10.59c.23.67.45,1,.68,1.09Q295,837.08,295,845.47q0,4.71-3.44,18.73-2.26,8.4-7.14,33.6t-6,35.35q-1.1,10.17-1.43,22.43-.17,7.38-.92,10a9.82,9.82,0,0,1-3.57,4.83,11.81,11.81,0,0,1-7.52,2.23,9.53,9.53,0,0,1-7.6-3.28,12.4,12.4,0,0,1-2.81-8.4q0-3.27,3.23-23.26t5.42-28.39C264.56,904.21,265.52,900.2,266.13,897.29Zm2.1-25.61q6-11.08,6-19.74a12.64,12.64,0,0,0-2-7.26,6.07,6.07,0,0,0-5.25-2.9q-10.17,0-25,18.43t-14.87,34.06c0,5.54,1.1,8.31,3.28,8.31q7.89,0,19.74-9.78a74,74,0,0,0,18.05-21Z"/><path class="cls-6" d="M368.93,888.64q-8.06,14.7-18.69,23.35t-21.54,8.65q-6.46,0-13.06-6.8t-6.59-20.92q0-10,5-30.15,4.37-16.62,4.37-25.27,3.35-7.07,10.49-7.06a10.51,10.51,0,0,1,10.67,9.74q0,6-4.2,17a164.49,164.49,0,0,0-5.25,18.52q-2.82,12-2.81,15.32,0,11.18,4.62,11.17,7.31,0,19.73-14t16.21-28.72q3.78-14.37,6.72-18.82a9.42,9.42,0,0,1,8.32-4.45q8.73,0,8.73,9.74a23.35,23.35,0,0,1-1.43,5.71,105.76,105.76,0,0,0-4.95,33.51q0,21.84,7.39,26.12c1.62,1,2.43,2.13,2.43,3.53,0,2-1.42,3.92-4.28,5.71a15.46,15.46,0,0,1-8.15,2.69q-6.63,0-10.2-9.37T368.93,888.64Z"/><path class="cls-7" d="M420.33,863.61v.09Q423,848.42,423,846.23a18.72,18.72,0,0,1,2.73-10.41,8.58,8.58,0,0,1,7.6-4.2q5.7,0,8.9,2.68a7.83,7.83,0,0,1,3.19,6.05q0,3.36-3.11,13.86l-.5,1.85q-4.62,16.2-5.54,26.45t-.93,16.55a71.56,71.56,0,0,0,1.77,13.69,16.61,16.61,0,0,1,.25,2.51q0,1.93-3.66,5.21a11.54,11.54,0,0,1-7.85,3.28q-11.08,0-11.08-16.8,0-14.28,4-34.77Q419.66,867.65,420.33,863.61Zm40.56-69q0,6-5.37,10.46t-9.32,4.49a11.92,11.92,0,0,1-8.95-4.2q-3.9-4.2-3.9-8.4a13,13,0,0,1,3.86-9.78q3.85-3.74,11.09-3.74a12.69,12.69,0,0,1,9.11,3.32A10.49,10.49,0,0,1,460.89,794.58Z"/><path class="cls-8" d="M523.13,891.33q-21.76,30.82-43.76,30.82a17.33,17.33,0,0,1-14.36-7q-5.46-7-5.46-17.85,0-21.91,17.93-43.59T513.8,832q10.59,0,15,5.54,6.3-27.54,7.47-34.43,2.52-12.76,4.2-17a13.77,13.77,0,0,1,5.12-6.51q3.45-2.31,6-2.31a7.33,7.33,0,0,1,6.55,3.53,16.18,16.18,0,0,1,2.26,8.9q0,2.36-3.69,13.52a373.53,373.53,0,0,0-11.21,43.84q-5.18,25.71-5.17,40.9,0,14.54,6.39,14.53a16.2,16.2,0,0,0,7-1.76,15.29,15.29,0,0,1,5.2-1.68c2.74,0,4.12,1.6,4.12,4.79q0,5.79-8.36,11.54t-15.83,5.76q-8.05,0-12.43-8.65T523.13,891.33Zm-9.33-43.08q-11,0-23,16.79t-12,30.74q0,8.15,6,8.15,10.24,0,24.44-18.23t14.2-28.8a8.35,8.35,0,0,0-2.69-5.93A9.5,9.5,0,0,0,513.8,848.25Z"/><path class="cls-9" d="M681.1,925.17q-14.19,0-25.2-13.64t-11-28.18q0-17.13,10.5-38.46T682.49,810q16.57-13.51,34.64-13.52,14,0,23.14,3.36a55.6,55.6,0,0,1,16.79,9.87q7.7,6.51,10.25,13.44t2.56,19q0,10.66-6.84,25.91a101.16,101.16,0,0,1-19.91,28.76q-13.05,13.53-26.58,20.91T681.1,925.17Zm-15-42.58q0,10.33,6.13,17.22t14.11,6.89q22.5,0,42.25-21.63t19.73-45.9q0-8.56-3.27-13.81T734,816.62a41.12,41.12,0,0,0-16.84-3.48q-16.21,0-33.59,23.43T666.15,882.59Z"/><path class="cls-10" d="M790.45,905.86a101.64,101.64,0,0,0,1.43-14.78q1.92-29.24,7.22-61.14a57.33,57.33,0,0,0,1.34-10.25,1.7,1.7,0,0,0-1.34-1.85q-8.91-2.26-8.9-7.81c0-2.69,1.21-5.22,3.65-7.6a11,11,0,0,1,7.77-3.57l11.34.34q7.72,0,21.24-1.09,11.5-1,18.73-1,23.43,0,37.92,13.14t14.49,34.81q0,24.19-22.34,43.72t-54.09,26.66a92.52,92.52,0,0,0-11.84,3.19,48.46,48.46,0,0,0-8.06,4.29,19.78,19.78,0,0,1-11.26,3.94q-4.28,0-7.64-4.11T786.75,916a12.41,12.41,0,0,1,1.77-5.12Zm21.92-4.2q4.44,0,25.49-6.51t34.14-20q13.1-13.51,13.1-30.82,0-13.86-9.7-22T850,814.06a200.73,200.73,0,0,0-25.86,2c-1.29.17-2.33.28-3.11.34q-9.16,56.1-9.16,79.19A24.64,24.64,0,0,0,812.37,901.66Z"/><path class="cls-11" d="M1040.89,826.91l-28,37.8q-19.39,27.12-29.9,27.12-4.86,0-8.65-5.58t-7.72-17q-4-11.41-5.55-17.3-3.6-13.61-4.87-15.45L952,858.32q-2,10.59-4.12,19.45t-4.57,21.29q-2.49,12.42-3.07,18.72-.16,2.1-4,4.54t-5.83,2.43q-4,0-7.52-3.73c-2.33-2.49-3.49-4.89-3.49-7.18q0-8.07,3.36-20.5,13.86-50.88,15.83-64.08a152.42,152.42,0,0,0,2-21.92,7.73,7.73,0,0,1,4-7q3.94-2.43,10.33-2.43,3.44,0,6.88,4.53a26.15,26.15,0,0,1,4.54,8.4l-.09-.17,11.68,32.67q7,19.57,9.32,24.86,9.08-9.83,26.87-34.18t24.36-31.24c4.37-4.65,7.44-7,9.24-7q4.11,0,9.15,3.44t5,5.88q0,1.85-3.27,25.28-2.28,16.54-4.12,37t-1.85,24.19a38.71,38.71,0,0,0,1.18,9.32,31.43,31.43,0,0,1,.84,7q0,8.31-2.9,11.34t-8.94,3q-11,0-11-16.55a312.89,312.89,0,0,1,2.86-38.17q2.85-22.54,5.21-34.64Q1040.64,828.59,1040.89,826.91Z"/></g></g></svg>